<svg width="60" height="60" viewBox="0 0 60 60" fill="none" xmlns="http://www.w3.org/2000/svg">
<path d="M25.4414 51.4512C26.3438 52.4414 27.6973 52.793 30.2812 52.8574C33.6738 52.9394 34.6992 52.3594 35.7012 50.0156C35.8652 49.6348 36.0234 49.2187 36.1816 48.7559L25.4414 51.4512ZM22.125 41.4258C22.2422 41.8594 22.3594 42.3281 22.4824 42.832C22.5234 42.9961 22.9336 44.7129 23.1152 45.4277L38.1563 41.6484C38.1797 41.5723 38.1973 41.4961 38.2207 41.4199H22.125V41.4258ZM21.0527 38.1504C20.584 37.0957 20.0449 36.3398 19.2949 35.6777C17.959 34.4941 16.834 33.1172 15.9551 31.5996H44.3379C43.4883 33.0703 42.4043 34.4121 41.1211 35.5723C40.3711 36.2519 39.8203 37.043 39.3281 38.1504H21.0527ZM13.7695 23.4082C13.7695 14.3613 21.1055 7.02539 30.1523 7.02539C39.1992 7.02539 46.5352 14.3613 46.5352 23.4082C46.5352 25.7109 46.0605 27.9316 45.1758 29.959H15.1289C14.2441 27.9258 13.7695 25.7051 13.7695 23.4082ZM17.127 38.1328C13.0605 34.5293 10.4941 29.2676 10.4941 23.4082C10.4941 12.5508 19.2949 3.75 30.1523 3.75C41.0098 3.75 49.8105 12.5508 49.8105 23.4082C49.8105 29.1973 47.3086 34.4062 43.3242 38.0039C41.4141 39.7324 40.6289 46.8574 38.7187 51.3047C37.1484 54.9609 34.8516 56.2383 30.2109 56.127C25.6816 56.0215 23.1562 54.8789 21.5859 51.3926C19.5879 46.9687 19.0664 39.8496 17.127 38.1328Z" fill="white"/>
<path d="M13.7695 23.4082C13.7695 14.3613 21.1055 7.02539 30.1523 7.02539C39.1992 7.02539 46.5352 14.3613 46.5352 23.4082C46.5352 25.7109 46.0605 27.9316 45.1758 29.959H15.1289C14.2441 27.9258 13.7695 25.7051 13.7695 23.4082ZM21.0527 38.1504C20.584 37.0957 20.0449 36.3398 19.2949 35.6777C17.959 34.4941 16.834 33.1172 15.9551 31.5996H44.3379C43.4883 33.0703 42.4043 34.4121 41.1211 35.5723C40.3711 36.252 39.8203 37.043 39.3281 38.1504H21.0527ZM24.5391 49.9863C24.1934 49.2012 23.8711 48.252 23.5254 47.0156L37.6758 43.4648C37.4941 44.1562 37.248 45.1289 37.1602 45.457C37.0195 45.9902 36.8848 46.4766 36.7559 46.9219L24.5391 49.9863Z" fill="#7851A9"/>
<path d="M17.8654 23.4844C17.045 23.4844 17.0802 22.2773 17.1505 21.7265C17.9064 15.8203 22.5939 11.1445 28.5001 10.4062C28.9103 10.3535 30.2228 10.3066 30.2228 11.1211C30.2228 11.9414 28.3771 12.0762 28.3771 12.0762C23.4669 12.8379 19.5822 16.7226 18.8204 21.6328C18.8204 21.6328 18.6798 23.4844 17.8654 23.4844Z" fill="white"/>
</svg>
