<svg width="200" height="200" viewBox="0 0 200 200" fill="none" xmlns="http://www.w3.org/2000/svg">
<path d="M100.024 3.38325e-06C82.657 -0.00451363 65.5884 4.51408 50.4986 13.1109C35.4087 21.7077 22.8178 34.0863 13.9656 49.028C5.11343 63.9697 0.305101 80.9593 0.0140474 98.3241C-0.277006 115.689 3.95925 132.83 12.3057 148.06L0.466 187C-0.0622517 188.734 -0.109158 190.579 0.330298 192.338C0.769754 194.097 1.67904 195.703 2.9609 196.985C4.24276 198.267 5.84896 199.176 7.60771 199.616C9.36645 200.055 11.2116 200.008 12.9457 199.48L51.8449 187.64C65.2085 194.983 80.0744 199.174 95.3059 199.89C110.537 200.606 125.731 197.829 139.725 191.772C153.718 185.715 166.141 176.537 176.044 164.942C185.946 153.346 193.066 139.64 196.858 124.87C200.65 110.101 201.015 94.6594 197.924 79.7274C194.832 64.7954 188.367 50.7681 179.023 38.7183C169.679 26.6684 157.702 16.9152 144.01 10.2045C130.318 3.49378 115.272 0.00329946 100.024 3.38325e-06V3.38325e-06Z" fill="#BEBEBE"/>
</svg>
