<svg width="108" height="95" viewBox="0 0 108 95" fill="none" xmlns="http://www.w3.org/2000/svg">
<path d="M45.8166 8.6073L5.28263 76.2756C4.44691 77.7229 4.00472 79.3638 4.00004 81.035C3.99536 82.7062 4.42836 84.3496 5.25596 85.8015C6.08356 87.2534 7.27691 88.4633 8.71729 89.3109C10.1577 90.1584 11.7949 90.6141 13.466 90.6324H94.534C96.2051 90.6141 97.8423 90.1584 99.2827 89.3109C100.723 88.4633 101.916 87.2534 102.744 85.8015C103.572 84.3496 104.005 82.7062 104 81.035C103.995 79.3638 103.553 77.7229 102.717 76.2756L62.1834 8.6073C61.3302 7.20085 60.129 6.03801 58.6956 5.23099C57.2622 4.42397 55.645 4 54 4C52.355 4 50.7378 4.42397 49.3044 5.23099C47.871 6.03801 46.6698 7.20085 45.8166 8.6073Z" stroke="#EB6E13" stroke-width="7" stroke-linecap="round" stroke-linejoin="round"/>
<path d="M54 33.2053V52.3477" stroke="#EB6E13" stroke-width="7" stroke-linecap="round" stroke-linejoin="round"/>
<path d="M54 71.4904H54.0456" stroke="#EB6E13" stroke-width="7" stroke-linecap="round" stroke-linejoin="round"/>
</svg>
