<svg width="100" height="100" viewBox="0 0 100 100" fill="none" xmlns="http://www.w3.org/2000/svg">
<path d="M54.902 75.4902C54.902 76.4597 54.6145 77.4074 54.0758 78.2136C53.5372 79.0197 52.7716 79.648 51.8759 80.019C50.9802 80.39 49.9946 80.4871 49.0437 80.2979C48.0928 80.1088 47.2194 79.6419 46.5338 78.9564C45.8483 78.2708 45.3814 77.3974 45.1922 76.4465C45.0031 75.4956 45.1002 74.51 45.4712 73.6143C45.8422 72.7186 46.4705 71.953 47.2766 71.4143C48.0827 70.8757 49.0305 70.5882 50 70.5882C51.3001 70.5882 52.5469 71.1047 53.4662 72.024C54.3855 72.9433 54.902 74.1901 54.902 75.4902ZM50 23.5294C39.7059 23.5294 31.3726 31.0049 31.3726 40.1961V42.1569C31.3726 42.9369 31.6824 43.685 32.234 44.2366C32.7856 44.7882 33.5337 45.098 34.3137 45.098C35.0938 45.098 35.8419 44.7882 36.3935 44.2366C36.945 43.685 37.2549 42.9369 37.2549 42.1569V40.1961C37.2549 34.25 42.9706 29.4118 50 29.4118C57.0294 29.4118 62.7451 34.25 62.7451 40.1961C62.7451 46.1421 57.0294 50.9804 50 50.9804C49.22 50.9804 48.4719 51.2902 47.9203 51.8418C47.3687 52.3934 47.0588 53.1415 47.0588 53.9216V57.8431C47.0588 58.6232 47.3687 59.3713 47.9203 59.9229C48.4719 60.4744 49.22 60.7843 50 60.7843C50.7801 60.7843 51.5282 60.4744 52.0797 59.9229C52.6313 59.3713 52.9412 58.6232 52.9412 57.8431V56.6568C61.8186 55.3921 68.6275 48.4902 68.6275 40.1961C68.6275 31.0049 60.2941 23.5294 50 23.5294ZM100 50C100 59.8891 97.0676 69.556 91.5735 77.7785C86.0794 86.001 78.2705 92.4096 69.1342 96.194C59.9979 99.9783 49.9445 100.968 40.2455 99.0392C30.5464 97.11 21.6373 92.3479 14.6447 85.3553C7.65206 78.3627 2.89002 69.4536 0.960759 59.7545C-0.968502 50.0555 0.0216634 40.0021 3.80604 30.8658C7.59042 21.7295 13.999 13.9206 22.2215 8.42652C30.444 2.93245 40.1109 0 50 0C63.2561 0.0155679 75.9647 5.28841 85.3381 14.6619C94.7116 24.0353 99.9844 36.7439 100 50ZM94.1176 50C94.1176 41.2743 91.5302 32.7447 86.6825 25.4895C81.8348 18.2344 74.9445 12.5798 66.8831 9.24061C58.8217 5.90145 49.9511 5.02777 41.3931 6.73006C32.8351 8.43235 24.9741 12.6341 18.8041 18.8041C12.6342 24.9741 8.43237 32.8351 6.73008 41.3931C5.02779 49.951 5.90147 58.8216 9.24063 66.8831C12.5798 74.9445 18.2345 81.8347 25.4896 86.6825C32.7447 91.5302 41.2744 94.1176 50 94.1176C61.6968 94.1046 72.9107 89.4524 81.1816 81.1815C89.4524 72.9107 94.1047 61.6967 94.1176 50Z" fill="#D2A600"/>
</svg>
