<svg width="50" height="50" viewBox="0 0 50 50" fill="none" xmlns="http://www.w3.org/2000/svg">
<path d="M35 20H35.025ZM25 20H25.025ZM15 20H15.025ZM2.5 20C2.5 6.61765 7.79412 2.5 25 2.5C42.206 2.5 47.5 6.61765 47.5 20C47.5 33.3822 42.206 37.5 25 37.5C24.148 37.5 23.3252 37.49 22.531 37.469L12.5 47.5V36.2347C5.082 34.173 2.5 29.3457 2.5 20Z" fill="white"/>
<path d="M35 20H35.025M25 20H25.025M15 20H15.025M2.5 20C2.5 6.61765 7.79412 2.5 25 2.5C42.206 2.5 47.5 6.61765 47.5 20C47.5 33.3822 42.206 37.5 25 37.5C24.148 37.5 23.3252 37.49 22.531 37.469L12.5 47.5V36.2347C5.082 34.173 2.5 29.3457 2.5 20Z" stroke="#3AA79E" stroke-width="3.75" stroke-linecap="round" stroke-linejoin="round"/>
</svg>
