<svg width="667" height="676" viewBox="0 0 667 676" fill="none" xmlns="http://www.w3.org/2000/svg">
<g clip-path="url(#clip0_167_499)">
<path d="M410.674 621.18L401.2 615.145C400.765 609.847 400.629 604.528 400.793 599.214L405.707 600.469L400.857 597.379C401.125 590.81 401.718 586.478 401.718 586.478C401.718 586.478 420.873 598.92 433.089 615.784L431.006 630.047L435.974 620.073C437.245 622.107 438.386 624.219 439.392 626.397C449.457 648.385 450.435 669.498 441.576 673.553C432.718 677.608 417.377 663.07 407.311 641.081C404.275 634.01 402.341 626.514 401.576 618.856L410.674 621.18Z" fill="#E6E6E6"/>
<path d="M391.214 642.404L379.984 642.135C376.873 637.824 374.007 633.341 371.401 628.708L376.257 627.242L370.507 627.104C367.341 621.343 365.609 617.327 365.609 617.327C365.609 617.327 388.438 618.076 407.613 626.199L413.202 639.485L412.299 628.379C414.439 629.463 416.508 630.681 418.494 632.026C438.476 645.646 450.227 663.214 444.739 671.265C439.252 679.315 418.604 674.8 398.622 661.179C392.368 656.694 386.837 651.278 382.224 645.117L391.214 642.404Z" fill="#E6E6E6"/>
<path d="M457.583 662.235L445.323 662.234L440.724 614.548L457.585 614.947L457.583 662.235Z" fill="#A0616A"/>
<path d="M460.71 674.119L421.179 674.117V673.617C421.179 669.537 422.8 665.623 425.686 662.738C428.571 659.852 432.485 658.231 436.565 658.231L460.71 658.232L460.71 674.119Z" fill="#2F2E41"/>
<path d="M602.22 626.845L594.179 636.099L554.657 609.488L566.525 595.829L602.22 626.845Z" fill="#A0616A"/>
<path d="M613.242 632.279L587.314 662.119L586.937 661.791C583.857 659.114 581.966 655.324 581.68 651.253C581.394 647.183 582.737 643.165 585.413 640.085L601.25 621.859L613.242 632.279Z" fill="#2F2E41"/>
<path d="M665.742 675.624H331.448C331.132 675.624 330.829 675.499 330.606 675.275C330.382 675.052 330.257 674.749 330.257 674.433C330.257 674.118 330.382 673.815 330.606 673.591C330.829 673.368 331.132 673.243 331.448 673.243H665.742C666.057 673.243 666.36 673.368 666.584 673.591C666.807 673.815 666.932 674.118 666.932 674.433C666.932 674.749 666.807 675.052 666.584 675.275C666.36 675.499 666.057 675.624 665.742 675.624Z" fill="#CACACA"/>
<path d="M484.519 549.986L458.724 645.548H438.724L443.117 541.034L454.712 439.208L496.827 436.97L484.519 549.986Z" fill="#2F2E41"/>
<path d="M529.277 439.208C529.277 439.208 531.515 453.755 522.564 469.42C513.612 485.086 519.207 537.677 519.207 537.677L594.724 613.548C594.724 613.548 582.988 633.909 577.393 632.79C571.798 631.671 483.4 560.057 483.4 560.057L454.712 443.684L529.277 439.208Z" fill="#2F2E41"/>
<path d="M487.638 269.817C501.851 269.817 513.374 258.294 513.374 244.08C513.374 229.867 501.851 218.344 487.638 218.344C473.424 218.344 461.901 229.867 461.901 244.08C461.901 258.294 473.424 269.817 487.638 269.817Z" fill="#A0616A"/>
<path d="M488.724 284.548C488.724 284.548 518.724 273.191 518.724 276.548C518.724 279.905 548.3 308.289 541.586 345.215C534.872 382.141 527.039 400.044 530.396 420.186C533.753 440.327 531.515 444.803 531.515 444.803C531.515 444.803 453.593 451.517 452.474 443.684C451.355 435.851 455.724 423.905 455.724 420.548C455.724 417.191 486.643 293.187 488.724 284.548Z" fill="#3AA79E"/>
<path opacity="0.2" d="M522.527 394.596L492.911 443.125H502.981L522.527 394.596Z" fill="black"/>
<path d="M499.286 259.545C497.203 258.444 494.782 258.217 492.527 257.532C484.459 255.082 479.054 245.961 480.78 237.708C481.099 236.649 481.242 235.545 481.203 234.441C480.902 231.996 478.401 230.419 476.002 229.859C473.604 229.299 471.052 229.38 468.759 228.479C465.22 227.089 462.869 223.451 462.359 219.683C461.993 215.867 462.842 212.034 464.786 208.731L465.653 211.224C466.974 210.105 467.955 208.638 468.483 206.99C469.468 207.155 470.393 207.571 471.171 208.197C471.949 208.822 472.554 209.637 472.927 210.563C474.317 211.383 474.518 208.016 476.054 207.519C476.729 207.435 477.412 207.603 477.971 207.992C481.066 209.435 484.662 208.201 487.983 207.401C493.732 206.022 499.725 206.015 505.478 207.38C509.3 208.292 513.083 209.879 515.818 212.7C517.956 215.129 519.6 217.952 520.654 221.012C523.588 228.394 525.525 236.381 524.557 244.265C523.751 250.717 521.051 256.785 516.8 261.705C514.585 264.256 507.36 273.158 503.398 271.641C498.42 269.734 505.152 262.647 499.286 259.545Z" fill="#2F2E41"/>
<path opacity="0.2" d="M455.628 482.787L454.14 483.354L483.585 560.558L485.073 559.99L455.628 482.787Z" fill="black"/>
<path d="M146.497 461.458C142.894 451.109 137.078 441.671 129.453 433.801C121.828 425.931 112.578 419.819 102.348 415.891C92.1187 411.963 81.1553 410.314 70.2227 411.059C59.2901 411.803 48.6515 414.924 39.0488 420.202C29.4461 425.481 21.1104 432.791 14.623 441.622C8.13565 450.453 3.65274 460.593 1.48689 471.335C-0.678959 482.077 -0.475603 493.162 2.08278 503.817C4.64116 514.472 9.49295 524.441 16.2999 533.028C16.9761 533.88 17.6794 534.732 18.3965 535.557C18.4507 535.611 18.4909 535.665 18.5451 535.719C20.3079 537.75 22.1816 539.683 24.1575 541.507C24.6719 541.981 25.2127 542.468 25.7536 542.928C26.7811 543.847 27.8363 544.726 28.9319 545.565C29.3644 545.903 29.7837 546.241 30.2301 546.566C31.9609 547.877 33.7597 549.095 35.6127 550.258L35.694 550.298C36.221 550.623 36.7624 550.947 37.3032 551.258C38.2766 551.84 39.2777 552.394 40.2781 552.922L40.9141 553.246C42.3748 554.004 43.8626 554.721 45.3907 555.383C45.7017 555.519 46.0398 555.654 46.3508 555.789C46.3779 555.803 46.3911 555.803 46.4182 555.816C47.1353 556.114 47.8518 556.398 48.5822 556.668C50.9812 557.584 53.4281 558.37 55.9122 559.021C62.252 560.711 68.7854 561.566 75.3465 561.564C77.7403 561.564 80.1071 561.456 82.4467 561.226C87.7927 560.732 93.0703 559.667 98.189 558.048C98.2022 558.048 98.2161 558.034 98.2293 558.034C101.463 557.004 104.622 555.752 107.683 554.288C107.696 554.274 107.723 554.274 107.737 554.261C108.427 553.936 109.09 553.585 109.766 553.246C109.874 553.192 109.982 553.138 110.09 553.084C110.631 552.8 111.172 552.516 111.713 552.219C113.066 551.475 114.391 550.69 115.702 549.852C116.068 549.635 116.42 549.406 116.785 549.162C117.298 548.824 117.812 548.472 118.313 548.107C118.975 547.647 119.638 547.174 120.287 546.687C120.49 546.538 120.707 546.39 120.909 546.227C133.58 536.61 142.88 523.228 147.476 508C152.073 492.772 151.73 476.479 146.497 461.458Z" fill="white"/>
<path d="M114.391 543.09C107.984 539.713 101.295 536.899 94.4018 534.678L93.5229 524.954L57.8734 521.113L53.3427 533.542L40.5489 538.343C40.0911 538.517 39.6553 538.744 39.2507 539.019H39.2368C38.5228 539.502 37.9147 540.125 37.4496 540.85C36.9846 541.576 36.6723 542.389 36.5319 543.239C36.3953 544.084 36.4277 544.948 36.627 545.781L37.3033 548.554C38.2766 549.135 39.2777 549.69 40.2782 550.217L40.9141 550.542C42.3748 551.299 43.8626 552.016 45.3907 552.679C45.7017 552.814 46.0398 552.949 46.3508 553.084C46.3779 553.098 46.3911 553.098 46.4182 553.111C47.1353 553.409 47.8518 553.693 48.5822 553.963C50.9812 554.88 53.4281 555.665 55.9122 556.317C62.2521 558.006 68.7854 558.861 75.3466 558.859C77.7404 558.859 80.1071 558.751 82.4467 558.521C87.7927 558.028 93.0703 556.962 98.189 555.343C98.2022 555.343 98.2161 555.329 98.2293 555.329C101.463 554.299 104.622 553.047 107.683 551.583C107.696 551.57 107.723 551.57 107.737 551.556C108.427 551.231 109.09 550.88 109.766 550.542C109.874 550.488 109.982 550.434 110.09 550.379C110.631 550.095 111.172 549.811 111.713 549.514C113.066 548.77 114.391 547.986 115.702 547.147C116.068 546.931 116.42 546.701 116.785 546.457C117.298 546.119 117.812 545.768 118.313 545.403C117.055 544.591 115.743 543.82 114.391 543.09Z" fill="#E4E4E4"/>
<path d="M47.4867 549.081L45.2553 539.006H39.4263C39.3675 539.006 39.3088 539.011 39.2506 539.019H39.2368C37.142 539.196 35.1246 539.894 33.3675 541.048C32.1757 541.809 31.116 542.759 30.2301 543.861C31.9609 545.173 33.7598 546.39 35.6127 547.553L35.6939 547.593C36.2209 547.918 36.7624 548.243 37.3032 548.554C38.2766 549.135 39.2777 549.69 40.2782 550.217L40.9141 550.542C42.3748 551.299 43.8626 552.016 45.3906 552.678C45.7016 552.814 46.0398 552.949 46.3508 553.084C46.3779 553.098 46.3911 553.098 46.4182 553.111C47.1353 553.409 47.8518 553.693 48.5822 553.963L47.4867 549.081Z" fill="#E4E4E4"/>
<path d="M74.2991 514.966C88.479 514.966 99.9742 503.47 99.9742 489.291C99.9742 475.111 88.479 463.615 74.2991 463.615C60.1192 463.615 48.6241 475.111 48.6241 489.291C48.6241 503.47 60.1192 514.966 74.2991 514.966Z" fill="white"/>
<path d="M74.2622 515.978C70.1979 515.972 66.1887 515.038 62.5407 513.246C58.8926 511.455 55.702 508.853 53.2124 505.641C50.7228 502.428 49.0001 498.689 48.1757 494.71C47.3513 490.73 47.447 486.614 48.4556 482.677C49.4641 478.74 51.3588 475.085 53.995 471.992C56.6312 468.899 59.9393 466.449 63.6667 464.829C67.3941 463.208 71.4424 462.462 75.5025 462.644C79.5627 462.827 83.5274 463.936 87.094 465.884C92.2885 468.734 96.3872 473.232 98.7441 478.668C101.101 484.104 101.582 490.17 100.112 495.909C98.6418 501.649 95.3036 506.736 90.6234 510.37C85.9433 514.003 80.1872 515.976 74.2622 515.978ZM74.3408 464.62C68.3296 464.612 62.5225 466.799 58.0103 470.771C53.4981 474.742 50.5913 480.225 49.8361 486.188C49.0808 492.152 50.5291 498.186 53.9088 503.157C57.2885 508.128 62.3671 511.694 68.1904 513.185C74.0137 514.676 80.181 513.989 85.5338 511.254C90.8865 508.519 95.0563 503.923 97.2597 498.33C99.4632 492.737 99.5487 486.532 97.5002 480.881C95.4516 475.23 91.4101 470.521 86.1347 467.639C82.517 465.664 78.4625 464.626 74.3408 464.62Z" fill="#E4E4E4"/>
<path d="M57.0611 476.785C59.7189 479.93 64.2169 480.818 68.3661 481.182C76.7925 481.921 89.0456 480.722 97.2805 478.821C97.8682 484.517 96.2657 490.66 99.6211 495.346C101.194 489.672 102.109 483.837 102.347 477.955C102.597 475.431 102.268 472.883 101.383 470.506C100.358 468.19 98.1225 466.225 95.5478 466.204C97.4605 464.753 99.7011 463.795 102.072 463.415L93.9193 459.318L96.0129 457.169L81.2534 456.265L85.5283 453.55C79.0943 452.666 72.5851 452.46 66.1082 452.937C63.1005 453.158 59.9559 453.582 57.519 455.324C55.082 457.067 53.6739 460.53 55.1867 463.089C53.2927 463.4 51.5094 464.189 50.0058 465.382C48.5022 466.575 47.3281 468.133 46.5947 469.906C45.6673 472.726 45.4434 475.729 45.9425 478.655C46.4986 483.349 47.5895 487.964 49.194 492.41L57.0611 476.785Z" fill="#E4E4E4"/>
<path d="M146.497 461.458C142.894 451.109 137.078 441.671 129.453 433.801C121.828 425.931 112.578 419.819 102.348 415.891C92.1187 411.963 81.1553 410.314 70.2227 411.059C59.2901 411.803 48.6515 414.924 39.0488 420.202C29.4461 425.481 21.1104 432.791 14.623 441.622C8.13565 450.453 3.65274 460.593 1.48689 471.335C-0.678959 482.077 -0.475603 493.162 2.08278 503.817C4.64116 514.472 9.49295 524.441 16.2999 533.028C16.9761 533.88 17.6794 534.732 18.3965 535.557C18.4507 535.611 18.4909 535.665 18.5451 535.719C20.3079 537.75 22.1816 539.683 24.1575 541.507C24.6719 541.981 25.2127 542.468 25.7536 542.928C26.7811 543.847 27.8363 544.726 28.9319 545.565C29.3644 545.903 29.7837 546.241 30.2301 546.566C31.9609 547.877 33.7597 549.095 35.6127 550.258L35.694 550.298C36.221 550.623 36.7624 550.947 37.3032 551.258C38.2766 551.84 39.2777 552.394 40.2781 552.922L40.9141 553.246C42.3748 554.004 43.8626 554.721 45.3907 555.383C45.7017 555.519 46.0398 555.654 46.3508 555.789C46.3779 555.803 46.3911 555.803 46.4182 555.816C47.1353 556.114 47.8518 556.398 48.5822 556.668C50.9812 557.584 53.4281 558.37 55.9122 559.021C62.252 560.711 68.7854 561.566 75.3465 561.564C77.7403 561.564 80.1071 561.456 82.4467 561.226C87.7927 560.732 93.0703 559.667 98.189 558.048C98.2022 558.048 98.2161 558.034 98.2293 558.034C101.463 557.004 104.622 555.752 107.683 554.288C107.696 554.274 107.723 554.274 107.737 554.261C108.427 553.936 109.09 553.585 109.766 553.246C109.874 553.192 109.982 553.138 110.09 553.084C110.631 552.8 111.172 552.516 111.713 552.219C113.066 551.475 114.391 550.69 115.702 549.852C116.068 549.635 116.42 549.406 116.785 549.162C117.298 548.824 117.812 548.472 118.313 548.107C118.975 547.647 119.638 547.174 120.287 546.687C120.49 546.538 120.707 546.39 120.909 546.227C133.58 536.61 142.88 523.228 147.476 508C152.073 492.772 151.73 476.479 146.497 461.458ZM118.421 542.941C117.975 543.293 117.515 543.631 117.055 543.942C116.608 544.28 116.163 544.605 115.702 544.902C115.31 545.186 114.918 545.457 114.512 545.714C114.472 545.741 114.431 545.768 114.391 545.795C114.093 545.998 113.796 546.187 113.498 546.376C112.375 547.079 111.239 547.756 110.09 548.405C109.968 548.472 109.846 548.54 109.725 548.608C109.211 548.892 108.697 549.162 108.183 549.433C108.115 549.473 108.034 549.5 107.967 549.541L107.886 549.581C107.237 549.92 106.573 550.244 105.911 550.555C103.354 551.787 100.72 552.853 98.0265 553.747C97.6745 553.869 97.3232 553.99 96.9719 554.098C92.1269 555.639 87.1303 556.655 82.0683 557.128C79.8501 557.331 77.6049 557.439 75.3465 557.439C69.1407 557.452 62.9605 556.642 56.9674 555.032C53.8916 554.229 50.8771 553.207 47.9469 551.975C47.7976 551.908 47.6352 551.853 47.4866 551.786C47.3248 551.718 47.1756 551.664 47.027 551.596C46.8645 551.529 46.716 551.461 46.5535 551.38C45.2823 550.826 44.0244 550.217 42.7941 549.581L42.1991 549.27C40.6974 548.486 39.2235 547.647 37.7899 546.755C37.3705 546.498 36.938 546.227 36.5319 545.943C36.4242 545.876 36.3291 545.808 36.2209 545.741C35.2607 545.105 34.3006 544.442 33.3675 543.753C32.7322 543.279 32.0963 542.806 31.4742 542.319C30.4328 541.535 29.4317 540.696 28.4584 539.83C27.9446 539.398 27.4441 538.924 26.9574 538.478C25.0398 536.708 23.2246 534.829 21.5206 532.852C20.9527 532.203 20.398 531.554 19.8704 530.877C19.7505 530.744 19.6376 530.604 19.5323 530.458C10.7453 519.37 5.45992 505.916 4.35035 491.812C3.24079 477.707 6.35728 463.592 13.3024 451.266C20.2475 438.94 30.7064 428.962 43.3453 422.605C55.9843 416.247 70.2304 413.798 84.2669 415.57C98.3033 417.342 111.494 423.254 122.157 432.553C132.819 441.852 140.47 454.116 144.135 467.781C147.799 481.446 147.31 495.893 142.73 509.279C138.151 522.665 129.688 534.384 118.421 542.941Z" fill="#E4E4E4"/>
<path d="M146.497 256.778C142.894 246.429 137.078 236.99 129.453 229.12C121.828 221.25 112.578 215.138 102.348 211.211C92.1187 207.283 81.1553 205.634 70.2227 206.378C59.2901 207.123 48.6515 210.243 39.0488 215.522C29.4461 220.801 21.1104 228.11 14.623 236.942C8.13565 245.773 3.65274 255.913 1.48689 266.655C-0.678959 277.396 -0.475603 288.481 2.08278 299.136C4.64116 309.791 9.49295 319.76 16.2999 328.348C16.9761 329.2 17.6794 330.052 18.3965 330.877C18.4507 330.931 18.4909 330.985 18.5451 331.039C20.3079 333.07 22.1816 335.002 24.1575 336.827C24.6719 337.3 25.2127 337.787 25.7536 338.247C26.7811 339.167 27.8363 340.046 28.9319 340.884C29.3644 341.222 29.7837 341.561 30.2301 341.885C31.9609 343.197 33.7597 344.414 35.6127 345.577L35.694 345.618C36.221 345.942 36.7624 346.267 37.3032 346.578C38.2766 347.16 39.2777 347.714 40.2781 348.241L40.9141 348.566C42.3748 349.323 43.8626 350.04 45.3907 350.703C45.7017 350.838 46.0398 350.973 46.3508 351.109C46.3779 351.122 46.3911 351.122 46.4182 351.136C47.1353 351.433 47.8518 351.717 48.5822 351.988C50.9812 352.904 53.4281 353.689 55.9122 354.341C62.252 356.031 68.7854 356.885 75.3465 356.883C77.7403 356.883 80.1071 356.775 82.4467 356.545C87.7927 356.052 93.0703 354.986 98.189 353.367C98.2022 353.367 98.2161 353.354 98.2293 353.354C101.463 352.323 104.622 351.072 107.683 349.607C107.696 349.594 107.723 349.594 107.737 349.58C108.427 349.256 109.09 348.904 109.766 348.566C109.874 348.512 109.982 348.458 110.09 348.404C110.631 348.12 111.172 347.836 111.713 347.538C113.066 346.794 114.391 346.01 115.702 345.172C116.068 344.955 116.42 344.725 116.785 344.482C117.298 344.144 117.812 343.792 118.313 343.427C118.975 342.967 119.638 342.494 120.287 342.007C120.49 341.858 120.707 341.709 120.909 341.547C133.58 331.93 142.88 318.548 147.476 303.32C152.073 288.092 151.73 271.799 146.497 256.778Z" fill="white"/>
<path d="M48.7984 299.17L53.1743 314.329L109.094 313.342L108.604 285.568C108.217 263.584 92.6798 244.624 70.6962 245.011C48.7127 245.399 34.7345 263.984 35.1223 285.968L38.3159 314.591L47.4333 314.43L48.7984 299.17Z" fill="#E4E4E4"/>
<path d="M73.1952 309.77C87.0519 309.77 98.2851 298.537 98.2851 284.68C98.2851 270.823 87.0519 259.59 73.1952 259.59C59.3384 259.59 48.1052 270.823 48.1052 284.68C48.1052 298.537 59.3384 309.77 73.1952 309.77Z" fill="white"/>
<path d="M123.136 323.807L122.568 334.36C110.526 346.885 94.1001 354.258 76.7385 354.93C59.3769 355.603 42.43 349.523 29.4557 337.967C28.8758 337.456 28.3073 336.923 27.7506 336.378C31.2297 332.922 40.8324 324.387 51.49 323.598L99.548 320.571C99.548 320.571 117.755 318.437 123.136 323.807Z" fill="#E4E4E4"/>
<path d="M100.661 267.063C100.628 265.141 100.027 263.273 98.933 261.693C98.8174 261.531 98.7014 261.38 98.5853 261.229C97.6556 260.043 96.4643 259.087 95.1043 258.438C93.7443 257.788 92.2525 257.461 90.7454 257.483L72.7123 257.808L54.6905 258.121C52.1087 258.173 49.6525 259.245 47.8594 261.104C46.0664 262.962 45.0824 265.455 45.1229 268.037L49.4141 276.677L51.8841 281.64L52.2901 281.408C67.8877 272.641 74.2661 272.525 94.9091 280.677L95.3264 280.84L96.9618 276.653L100.672 267.155L100.661 267.063Z" fill="#E4E4E4"/>
<path d="M128.829 330.906C127.379 332.762 126.071 332.728 124.435 334.421C120.307 338.724 113.719 342.408 108.57 345.481L107.446 325.326L123.136 323.807C123.136 323.807 126.649 325.676 128.829 330.906Z" fill="#E4E4E4"/>
<path d="M146.497 256.778C142.894 246.429 137.078 236.99 129.453 229.12C121.828 221.25 112.578 215.138 102.348 211.211C92.1187 207.283 81.1553 205.634 70.2227 206.378C59.2901 207.123 48.6515 210.243 39.0488 215.522C29.4461 220.801 21.1104 228.11 14.623 236.942C8.13565 245.773 3.65274 255.913 1.48689 266.655C-0.678959 277.396 -0.475603 288.481 2.08278 299.136C4.64116 309.791 9.49295 319.76 16.2999 328.348C16.9761 329.2 17.6794 330.052 18.3965 330.877C18.4507 330.931 18.4909 330.985 18.5451 331.039C20.3079 333.07 22.1816 335.002 24.1575 336.827C24.6719 337.3 25.2127 337.787 25.7536 338.247C26.7811 339.167 27.8363 340.046 28.9319 340.884C29.3644 341.222 29.7837 341.561 30.2301 341.885C31.9609 343.197 33.7597 344.414 35.6127 345.577L35.694 345.618C36.221 345.942 36.7624 346.267 37.3032 346.578C38.2766 347.16 39.2777 347.714 40.2781 348.241L40.9141 348.566C42.3748 349.323 43.8626 350.04 45.3907 350.703C45.7017 350.838 46.0398 350.973 46.3508 351.109C46.3779 351.122 46.3911 351.122 46.4182 351.136C47.1353 351.433 47.8518 351.717 48.5822 351.988C50.9812 352.904 53.4281 353.689 55.9122 354.341C62.252 356.031 68.7854 356.885 75.3465 356.883C77.7403 356.883 80.1071 356.775 82.4467 356.545C87.7927 356.052 93.0703 354.986 98.189 353.367C98.2022 353.367 98.2161 353.354 98.2293 353.354C101.463 352.323 104.622 351.072 107.683 349.607C107.696 349.594 107.723 349.594 107.737 349.58C108.427 349.256 109.09 348.904 109.766 348.566C109.874 348.512 109.982 348.458 110.09 348.404C110.631 348.12 111.172 347.836 111.713 347.538C113.066 346.794 114.391 346.01 115.702 345.172C116.068 344.955 116.42 344.725 116.785 344.482C117.298 344.144 117.812 343.792 118.313 343.427C118.975 342.967 119.638 342.494 120.287 342.007C120.49 341.858 120.707 341.709 120.909 341.547C133.58 331.93 142.88 318.548 147.476 303.32C152.073 288.092 151.73 271.799 146.497 256.778ZM118.421 338.261C117.975 338.612 117.515 338.95 117.055 339.262C116.608 339.6 116.163 339.924 115.702 340.222C115.31 340.506 114.918 340.776 114.512 341.033C114.472 341.06 114.431 341.087 114.391 341.114C114.093 341.317 113.796 341.507 113.498 341.696C112.375 342.399 111.239 343.075 110.09 343.725C109.968 343.792 109.846 343.86 109.725 343.927C109.211 344.211 108.697 344.482 108.183 344.752C108.115 344.793 108.034 344.82 107.967 344.86L107.886 344.901C107.237 345.239 106.573 345.564 105.911 345.875C103.354 347.106 100.72 348.172 98.0265 349.067C97.6745 349.188 97.3232 349.31 96.9719 349.418C92.1269 350.959 87.1303 351.975 82.0683 352.448C79.8501 352.65 77.6049 352.759 75.3465 352.759C69.1407 352.771 62.9605 351.962 56.9674 350.351C53.8916 349.548 50.8771 348.527 47.9469 347.295C47.7976 347.227 47.6352 347.173 47.4866 347.105C47.3248 347.038 47.1756 346.984 47.027 346.916C46.8645 346.849 46.716 346.781 46.5535 346.7C45.2823 346.145 44.0244 345.537 42.7941 344.901L42.1991 344.59C40.6974 343.806 39.2235 342.967 37.7899 342.074C37.3705 341.817 36.938 341.547 36.5319 341.263C36.4242 341.195 36.3291 341.128 36.2209 341.06C35.2607 340.425 34.3006 339.762 33.3675 339.072C32.7322 338.599 32.0963 338.125 31.4742 337.639C30.4328 336.854 29.4317 336.016 28.4584 335.15C27.9446 334.717 27.4441 334.244 26.9574 333.798C25.0398 332.027 23.2246 330.149 21.5206 328.172C20.9527 327.523 20.398 326.873 19.8704 326.197C19.7505 326.063 19.6376 325.923 19.5323 325.778C10.7453 314.69 5.45992 301.236 4.35035 287.131C3.24079 273.027 6.35728 258.912 13.3024 246.586C20.2475 234.26 30.7064 224.282 43.3453 217.925C55.9843 211.567 70.2304 209.118 84.2669 210.89C98.3033 212.662 111.494 218.574 122.157 227.873C132.819 237.172 140.47 249.436 144.135 263.101C147.799 276.766 147.31 291.213 142.73 304.599C138.151 317.985 129.688 329.704 118.421 338.261Z" fill="#E4E4E4"/>
<path d="M149.448 51.5983C145.773 41.041 139.839 31.4124 132.061 23.3839C124.282 15.3554 114.846 9.12033 104.41 5.11339C93.9745 1.10646 82.7903 -0.575855 71.6375 0.183774C60.4847 0.943404 49.6318 4.12668 39.8357 9.51164C30.0396 14.8966 21.5361 22.3536 14.918 31.3627C8.3 40.3717 3.72679 50.716 1.51732 61.6741C-0.692154 72.6322 -0.484708 83.9403 2.1252 94.81C4.7351 105.68 9.68462 115.849 16.6286 124.609C17.3185 125.479 18.0359 126.348 18.7669 127.189C18.8221 127.245 18.8632 127.3 18.9184 127.355C20.7172 129.427 22.6288 131.398 24.6445 133.26C25.1686 133.743 25.7204 134.239 26.2721 134.709C27.321 135.647 28.3968 136.544 29.5144 137.399C31.6965 139.119 33.9717 140.717 36.3298 142.186L36.4126 142.228C37.9439 143.18 39.5027 144.063 41.0899 144.904L41.7379 145.235C43.2281 146.008 44.7458 146.739 46.3046 147.415C46.6219 147.553 46.9668 147.691 47.2841 147.829C47.3118 147.843 47.3259 147.843 47.3535 147.857C50.5034 149.167 53.7394 150.259 57.0387 151.126C63.506 152.85 70.1707 153.722 76.8638 153.72C79.3058 153.72 81.7202 153.61 84.107 153.375C89.5606 152.872 94.9445 151.785 100.166 150.133C100.18 150.133 100.194 150.119 100.207 150.119C103.506 149.068 106.728 147.792 109.851 146.298C109.865 146.284 109.893 146.284 109.907 146.27C110.61 145.939 111.286 145.58 111.976 145.235L112.308 145.07C112.859 144.78 113.411 144.49 113.963 144.187C115.342 143.428 116.695 142.628 118.033 141.772C118.406 141.552 118.764 141.317 119.137 141.069C120.35 140.269 121.551 139.413 122.71 138.544C122.917 138.392 123.137 138.24 123.345 138.075C136.27 128.264 145.757 114.612 150.446 99.0776C155.135 83.5429 154.786 66.9222 149.448 51.5983Z" fill="white"/>
<path d="M102.227 108.543C108.589 108.543 113.746 103.385 113.746 97.0238C113.746 90.6622 108.589 85.5051 102.227 85.5051C95.8656 85.5051 90.7085 90.6622 90.7085 97.0238C90.7085 103.385 95.8656 108.543 102.227 108.543Z" fill="#E4E4E4"/>
<path d="M105.436 85.8225C107.43 85.8226 109.39 86.34 111.123 87.3242C112.857 88.3085 114.306 89.7258 115.328 91.4376C116.35 93.1494 116.91 95.0972 116.953 97.0903C116.997 99.0835 116.523 101.054 115.577 102.809C116.575 101.559 117.302 100.116 117.712 98.5695C118.122 97.0235 118.205 95.4091 117.956 93.8292C117.707 92.2493 117.132 90.7385 116.267 89.3931C115.402 88.0477 114.267 86.8973 112.933 86.015C111.599 85.1327 110.096 84.5379 108.519 84.2687C106.943 83.9994 105.327 84.0614 103.776 84.4509C102.225 84.8403 100.772 85.5486 99.5092 86.5306C98.2468 87.5127 97.2029 88.7469 96.4438 90.1547C97.5206 88.8027 98.8885 87.711 100.446 86.9609C102.003 86.2109 103.709 85.8217 105.438 85.8225H105.436Z" fill="#E4E4E4"/>
<path d="M80.7019 96.9991C99.3898 96.9991 114.539 81.8497 114.539 63.1618C114.539 44.474 99.3898 29.3245 80.7019 29.3245C62.0141 29.3245 46.8646 44.474 46.8646 63.1618C46.8646 81.8497 62.0141 96.9991 80.7019 96.9991Z" fill="#E4E4E4"/>
<path d="M54.1449 42.1677C59.9754 35.6105 68.1253 31.5751 76.8747 30.9131C85.6241 30.251 94.2885 33.0141 101.039 38.6192C100.763 38.3557 100.487 38.0908 100.202 37.8355C93.5168 31.8528 84.7294 28.7697 75.7718 29.2641C66.8142 29.7585 58.4196 33.7899 52.4335 40.4719C46.4473 47.154 43.3598 55.9397 43.8497 64.8976C44.3395 73.8555 48.3666 82.2522 55.0456 88.2417C55.1099 88.2992 55.1743 88.3565 55.239 88.4135C55.526 88.6688 55.8212 88.9102 56.1151 89.1544C49.7579 83.1066 45.9991 74.8256 45.6317 66.059C45.2644 57.2924 48.3173 48.7259 54.1463 42.1676L54.1449 42.1677Z" fill="#E4E4E4"/>
<path d="M80.4149 96.7122C92.4509 96.7122 102.208 86.9551 102.208 74.9192C102.208 62.8833 92.4509 53.1262 80.4149 53.1262C68.379 53.1262 58.622 62.8833 58.622 74.9192C58.622 86.9551 68.379 96.7122 80.4149 96.7122Z" fill="white"/>
<path d="M119.413 131.701V139.013C118.074 139.868 116.722 140.669 115.342 141.427C114.791 141.731 114.239 142.021 113.687 142.311L113.356 142.476C112.666 142.821 111.99 143.18 111.286 143.511C111.273 143.525 111.245 143.525 111.231 143.538C108.108 145.032 104.886 146.309 101.587 147.36C101.574 147.36 101.56 147.374 101.546 147.374C96.3242 149.026 90.9403 150.113 85.4866 150.616C83.0999 150.851 80.6855 150.961 78.2435 150.961C71.5504 150.963 64.8857 150.091 58.4184 148.367C55.1191 147.5 51.8831 146.407 48.7332 145.097C48.7056 145.084 48.6914 145.084 48.6638 145.07C48.3465 144.932 48.0016 144.794 47.6843 144.656C46.1255 143.98 44.6077 143.249 43.1176 142.476L42.4695 142.145C40.8824 141.303 39.3235 140.42 37.7923 139.468L37.7094 139.427C35.3514 137.958 33.0761 136.359 30.894 134.64C29.7764 133.784 28.7006 132.887 27.6517 131.949C27.1 131.48 26.5483 130.983 26.0242 130.501C24.0085 128.639 22.0969 126.668 20.2981 124.596C20.5367 123.159 20.8874 121.742 21.347 120.36L21.3604 120.346C21.443 120.111 21.5397 119.88 21.6501 119.657C21.7262 119.458 21.8137 119.265 21.9121 119.077C24.3818 114.455 28.8521 113.31 34.3984 113.062C37.5302 112.924 40.9928 113.076 44.6494 113.034C46.5808 113.02 48.5809 112.951 50.5817 112.772C63.2053 111.627 60.9156 104.177 61.4808 100.162C62.0466 96.2715 65.551 99.6379 65.7855 99.8586L65.7989 99.8724C72.9427 103.216 80.8463 104.601 88.7013 103.887C90.0533 103.722 91.4053 103.625 92.7574 103.584C96.317 103.542 95.5443 104.563 94.3169 105.405C93.721 105.797 93.0986 106.147 92.4542 106.453C92.4542 106.453 91.8884 109.903 91.309 115.062C90.7573 120.001 108.154 121.712 111.563 122.788H111.576C113.521 123.504 115.257 124.694 116.626 126.25C117.994 127.807 118.952 129.68 119.413 131.701Z" fill="#E4E4E4"/>
<path d="M61.7758 47.678V69.4765H66.8226L73.2449 62.5948L72.3854 69.4765H94.6944L93.3147 62.5948L96.074 69.4765H99.6308V47.678H61.7758Z" fill="#E4E4E4"/>
<path d="M58.335 73.4857C59.2852 73.4857 60.0554 72.0737 60.0554 70.3319C60.0554 68.59 59.2852 67.178 58.335 67.178C57.3848 67.178 56.6146 68.59 56.6146 70.3319C56.6146 72.0737 57.3848 73.4857 58.335 73.4857Z" fill="#E4E4E4"/>
<path d="M102.496 73.4857C103.446 73.4857 104.217 72.0737 104.217 70.3319C104.217 68.59 103.446 67.178 102.496 67.178C101.546 67.178 100.776 68.59 100.776 70.3319C100.776 72.0737 101.546 73.4857 102.496 73.4857Z" fill="#E4E4E4"/>
<path d="M149.448 51.5983C145.773 41.041 139.839 31.4124 132.061 23.3839C124.282 15.3554 114.846 9.12033 104.41 5.11339C93.9745 1.10646 82.7903 -0.575855 71.6375 0.183774C60.4847 0.943404 49.6318 4.12668 39.8357 9.51164C30.0396 14.8966 21.5361 22.3536 14.918 31.3627C8.3 40.3717 3.72679 50.716 1.51732 61.6741C-0.692154 72.6322 -0.484708 83.9403 2.1252 94.81C4.7351 105.68 9.68462 115.849 16.6286 124.609C17.3185 125.479 18.0359 126.348 18.7669 127.189C18.8221 127.245 18.8632 127.3 18.9184 127.355C20.7172 129.427 22.6288 131.398 24.6445 133.26C25.1686 133.743 25.7204 134.239 26.2721 134.709C27.321 135.647 28.3968 136.544 29.5144 137.399C31.6965 139.119 33.9717 140.717 36.3298 142.186L36.4126 142.228C37.9439 143.18 39.5027 144.063 41.0899 144.904L41.7379 145.235C43.2281 146.008 44.7458 146.739 46.3046 147.415C46.6219 147.553 46.9668 147.691 47.2841 147.829C47.3118 147.843 47.3259 147.843 47.3535 147.857C50.5034 149.167 53.7394 150.259 57.0387 151.126C63.506 152.85 70.1707 153.722 76.8638 153.72C79.3058 153.72 81.7202 153.61 84.107 153.375C89.5606 152.872 94.9445 151.785 100.166 150.133C100.18 150.133 100.194 150.119 100.207 150.119C103.506 149.068 106.728 147.792 109.851 146.298C109.865 146.284 109.893 146.284 109.907 146.27C110.61 145.939 111.286 145.58 111.976 145.235L112.308 145.07C112.859 144.78 113.411 144.49 113.963 144.187C115.342 143.428 116.695 142.628 118.033 141.772C118.406 141.552 118.764 141.317 119.137 141.069C120.35 140.269 121.551 139.413 122.71 138.544C122.917 138.392 123.137 138.24 123.345 138.075C136.27 128.264 145.757 114.612 150.446 99.0776C155.135 83.5429 154.786 66.9222 149.448 51.5983ZM120.806 134.722C120.35 135.081 119.882 135.426 119.413 135.743C118.957 136.088 118.502 136.419 118.033 136.723C117.633 137.013 117.233 137.288 116.818 137.551C116.474 137.785 116.129 138.006 115.784 138.227C114.639 138.944 113.48 139.634 112.308 140.296C112.183 140.365 112.059 140.434 111.934 140.503C111.41 140.793 110.886 141.069 110.362 141.345C110.293 141.386 110.21 141.414 110.141 141.455L110.058 141.496C109.396 141.841 108.72 142.172 108.044 142.49C105.435 143.746 102.749 144.834 100.001 145.746C99.6421 145.87 99.2831 145.994 98.9247 146.104C93.9821 147.676 88.885 148.713 83.7209 149.195C81.4581 149.402 79.1677 149.512 76.8638 149.512C70.533 149.525 64.2284 148.699 58.1145 147.056C54.9768 146.237 51.9016 145.195 48.9123 143.938C48.595 143.814 48.2777 143.676 47.9739 143.552C47.8089 143.483 47.6566 143.414 47.4909 143.331C46.1941 142.766 44.9115 142.145 43.6558 141.496L43.0488 141.179C41.5176 140.379 40.0133 139.524 38.5508 138.613C38.0132 138.282 37.475 137.937 36.9509 137.578C35.295 136.488 33.6809 135.316 32.1079 134.088C31.0456 133.287 30.025 132.432 29.0313 131.549C28.5072 131.108 27.9966 130.625 27.5001 130.169C25.544 128.363 23.6923 126.447 21.9539 124.43C21.3745 123.768 20.8087 123.106 20.2704 122.416C20.148 122.279 20.0329 122.137 19.9255 121.988C10.9615 110.677 5.56974 96.9514 4.43785 82.5631C3.30596 68.1748 6.48525 53.7754 13.5702 41.2013C20.6552 28.6272 31.3248 18.4483 44.2183 11.9627C57.1117 5.47712 71.6448 2.97878 85.9639 4.7863C100.283 6.59382 113.739 12.6253 124.617 22.1115C135.494 31.5977 143.299 44.1088 147.037 58.049C150.775 71.9893 150.277 86.7271 145.605 100.383C140.933 114.038 132.3 125.993 120.806 134.722Z" fill="#E4E4E4"/>
<path d="M170.837 172.421L116.728 171.196C111.315 150.23 113.752 130.268 118.071 111.872L172.18 113.097C166.707 132.438 166.245 152.853 170.837 172.421Z" fill="#3AA79E"/>
<path d="M127.341 124.983L127.371 122.924L155.403 123.926L155.374 125.985L127.341 124.983Z" fill="white"/>
<path d="M127.223 133.218L127.253 131.159L155.285 132.162L155.255 134.221L127.223 133.218Z" fill="white"/>
<path d="M127.105 141.454L127.135 139.395L155.167 140.397L155.137 142.456L127.105 141.454Z" fill="white"/>
<path d="M126.987 149.69L127.016 147.631L155.049 148.633L155.019 150.692L126.987 149.69Z" fill="white"/>
<path d="M126.869 157.925L126.898 155.866L154.931 156.869L154.901 158.927L126.869 157.925Z" fill="white"/>
<path d="M170.837 367.421L116.728 366.196C111.315 345.23 113.752 325.268 118.071 306.872L172.18 308.097C166.707 327.438 166.245 347.853 170.837 367.421Z" fill="#3AA79E"/>
<path d="M127.341 319.983L127.371 317.924L155.403 318.926L155.374 320.985L127.341 319.983Z" fill="white"/>
<path d="M127.223 328.218L127.253 326.159L155.285 327.162L155.255 329.221L127.223 328.218Z" fill="white"/>
<path d="M127.105 336.454L127.135 334.395L155.167 335.397L155.137 337.456L127.105 336.454Z" fill="white"/>
<path d="M126.987 344.69L127.016 342.631L155.049 343.633L155.019 345.692L126.987 344.69Z" fill="white"/>
<path d="M126.869 352.925L126.898 350.866L154.931 351.869L154.901 353.927L126.869 352.925Z" fill="white"/>
<path d="M170.837 562.421L116.728 561.196C111.315 540.23 113.752 520.268 118.071 501.872L172.18 503.097C166.707 522.438 166.245 542.853 170.837 562.421Z" fill="#3AA79E"/>
<path d="M127.341 514.983L127.371 512.924L155.403 513.926L155.374 515.985L127.341 514.983Z" fill="white"/>
<path d="M127.223 523.218L127.253 521.159L155.285 522.162L155.255 524.221L127.223 523.218Z" fill="white"/>
<path d="M127.105 531.454L127.135 529.395L155.167 530.397L155.137 532.456L127.105 531.454Z" fill="white"/>
<path d="M126.987 539.69L127.016 537.631L155.049 538.633L155.019 540.692L126.987 539.69Z" fill="white"/>
<path d="M126.869 547.925L126.898 545.866L154.931 546.869L154.901 548.927L126.869 547.925Z" fill="white"/>
<path d="M459.541 449.391C459.592 447.922 459.965 446.482 460.632 445.172C461.3 443.862 462.247 442.715 463.406 441.811C464.566 440.907 465.909 440.268 467.342 439.939C468.775 439.611 470.262 439.6 471.7 439.908L490.234 409.356L498.186 426.137L479.366 452.577C478.688 454.958 477.16 457.007 475.073 458.336C472.985 459.665 470.482 460.183 468.038 459.79C465.594 459.397 463.38 458.122 461.814 456.205C460.247 454.288 459.439 451.864 459.541 449.391Z" fill="#A0616A"/>
<path d="M525.92 288.148C525.92 288.148 552.211 291.158 542.422 339.447C532.634 387.736 494.589 443.684 494.589 443.684L468.853 431.375L502.422 365.356L494.589 323.955C494.589 323.955 490.114 284.791 525.92 288.148Z" fill="#3AA79E"/>
</g>
<defs>
<clipPath id="clip0_167_499">
<rect width="666.932" height="675.624" fill="white"/>
</clipPath>
</defs>
</svg>
